<svg t="1578467607263" class="icon" viewBox="0 0 1707 1024" version="1.1" xmlns="http://www.w3.org/2000/svg" p-id="4768" width="200" height="200"><path d="M1231.811765 539.105882s0 3.011765 0 0c0 3.011765 0 3.011765 0 0zM1105.317647 813.176471c0 3.011765-102.4 81.317647-225.882353 102.4 0 0-78.305882 21.082353-156.611765-6.02353 0-3.011765 222.870588 30.117647 367.435295-96.37647 0 0 165.647059-135.529412 180.705882-361.411765-3.011765 15.058824-30.117647 180.705882-150.588235 310.211765 0 0-105.411765 111.435294-246.964706 114.447058 3.011765 3.011765-66.258824 9.035294-96.376471-9.035294 3.011765 0 180.705882 39.152941 331.294118-111.435294 0 0 69.270588-60.235294 123.482353-216.847059-9.035294 21.082353-72.282353 153.6-162.635294 225.882353 3.011765 0-36.141176 27.105882-81.317647 48.188236 18.070588-9.035294 177.694118-105.411765 210.823529-252.988236 0 3.011765-42.164706 105.411765-147.576471 192.752941 9.035294-9.035294 99.388235-105.411765 117.458824-171.670588 0 0-108.423529 204.8-322.258824 228.894118 0 0-249.976471 39.152941-313.223529-262.02353 0 0-30.117647-108.423529 78.305882-189.741176 0 0 57.223529-21.082353 54.211765 24.094118 0 0 0 36.141176-63.247059 45.17647 0 0-27.105882 0-39.152941-9.035294 0 0 9.035294 36.141176 87.341176 39.152941 0 0 48.188235 0 87.341177-27.105882 0-3.011765 54.211765-63.247059 96.376471-48.188235 0 0-21.082353 6.023529-36.141177 42.164706 0 0-24.094118 48.188235-75.294118 39.152941 0 0 24.094118 24.094118 60.235295 24.094117 3.011765 0 48.188235 0 81.317647-42.164706 0 0 51.2-54.211765 87.341176-63.247058 0 0 54.211765-24.094118 42.164706 9.035294 0 0-21.082353 51.2 9.035294 36.141176 0 0 51.2-27.105882 57.223529-87.341176 0 0 9.035294-51.2-48.188235-42.164706 0 0-21.082353 3.011765-60.235294 21.082353 0 0-54.211765 27.105882-63.247059 3.011765 0 0-9.035294-18.070588 33.129412-18.070589 0 0 54.211765-3.011765 93.364706-54.211764 0 0 18.070588-42.164706 39.152941-18.070589 0 0 36.141176 51.2 66.258824 9.035294 0 0 21.082353-33.129412 0-60.235294-3.011765 0-24.094118-45.176471-99.388236-3.011764 0 0-24.094118 3.011765-72.282353 51.2 3.011765 0-27.105882 27.105882-42.164706 12.047058 0 0-21.082353-12.047059 12.047059-45.17647 0 0 54.211765-51.2 6.02353-69.270588 0 0-33.129412-15.058824-93.364706 9.035294 0 0-72.282353 27.105882-117.458824 0 0 0-33.129412-9.035294-36.141176-54.211765 0 0-6.023529-27.105882-27.105883-21.082353l3.011765 21.082353s-9.035294 48.188235-87.341176-18.070588c0 3.011765-30.117647-36.141176-30.117647-36.141177l-36.141177 21.082353s84.329412 93.364706 123.482353 105.411765c0 0-256 87.341176-283.105882 337.317647 0 3.011765-3.011765 129.505882 39.152941 219.858824 0 0-69.270588-310.211765 129.505882-451.764706-12.047059 9.035294-129.505882 108.423529-132.517647 286.117647 0 0-15.058824 256 207.811765 355.388235-6.023529-3.011765-195.764706-168.658824-153.6-388.517647 0 0-24.094118 310.211765 231.905882 400.564706 0 3.011765 222.870588 81.317647 409.6-63.247059 0 0 168.658824-108.423529 195.764706-349.364706 6.023529 12.047059-42.164706 219.858824-162.635294 313.22353zM861.364706 171.670588c9.035294 0 18.070588 3.011765 21.082353 9.035294 0 6.023529-6.023529 12.047059-15.058824 15.058824-9.035294 0-18.070588-3.011765-21.082353-9.035294-3.011765-6.023529 3.011765-12.047059 15.058824-15.058824z" p-id="4769" fill="#ffffff"></path><path d="M1069.176471 406.588235s-57.223529 0-60.235295 57.22353c0 0 3.011765 57.223529-6.023529 87.341176 0 0 15.058824-6.023529 27.105882-72.282353 0 0-3.011765-48.188235 39.152942-72.282353zM1002.917647 111.435294s-6.023529 42.164706 42.164706 42.164706c0 0 72.282353-9.035294 78.305882 15.058824 0 0 12.047059-36.141176-30.117647-36.141177-3.011765 0-72.282353 18.070588-90.352941-21.082353z" p-id="4770" fill="#ffffff"></path></svg>