<svg t="1584173135946" class="icon" viewBox="0 0 1061 1024" version="1.1" xmlns="http://www.w3.org/2000/svg" p-id="22265" width="200" height="200"><path d="M1053.051259 1015.428741a30.985481 30.985481 0 0 1-42.780444 0L8.874667 49.796741A29.013333 29.013333 0 0 1 0 29.165037C0 13.046519 13.539556 0 30.264889 0h955.960889C1028.020148 0 1061.925926 32.616296 1061.925926 72.89363v921.979259a28.444444 28.444444 0 0 1-8.874667 20.555852zM952.964741 180.754963a32.502519 32.502519 0 0 0-44.752593-1.441185l-0.910222 0.872296-219.97037 212.954074-113.664-112.64a31.478519 31.478519 0 0 0-44.183704 1.403259 30.871704 30.871704 0 0 0-1.479111 43.842371l138.88474 137.709037a31.55437 31.55437 0 0 0 44.22163-1.441185l241.322667-236.013037a31.744 31.744 0 0 0 0.530963-45.24563z" fill="#d81e06" p-id="22266"></path></svg>