<svg t="1587183912570" class="icon" viewBox="0 0 1024 1024" version="1.1" xmlns="http://www.w3.org/2000/svg" p-id="5379" width="200" height="200"><path d="M628.671854 597.376533H395.584146a32.06396 32.06396 0 0 1 0-64.06392h233.151708a31.99996 31.99996 0 1 1-0.064 64.06392zM638.655842 701.376403H385.536158a31.99996 31.99996 0 0 1 0-63.99992h253.119684a31.99996 31.99996 0 1 1 0 63.99992z" fill="#d81e06" p-id="5380"></path><path d="M512.128 845.504223a31.99996 31.99996 0 0 1-31.99996-31.99996V587.008546a31.99996 31.99996 0 1 1 63.99992 0v226.495717a31.99996 31.99996 0 0 1-31.99996 31.99996z" fill="#d81e06" p-id="5381"></path><path d="M512.128 584.896549a31.93596 31.93596 0 0 1-23.423971-10.303987l-91.583885-98.559877a31.99996 31.99996 0 0 1 46.847941-43.583946l91.583886 98.559877a31.99996 31.99996 0 0 1-23.423971 53.887933z" fill="#d81e06" p-id="5382"></path><path d="M512.128 584.896549a31.99996 31.99996 0 0 1-23.423971-53.887933l91.583886-98.559877a31.99996 31.99996 0 0 1 46.847941 43.583946l-91.583885 98.559877a31.93596 31.93596 0 0 1-23.423971 10.303987z" fill="#d81e06" p-id="5383"></path><path d="M496.640019 1024c-209.407738 0-318.143602-78.015902-372.735534-144.25582C59.200566 801.088279 36.608594 697.088409 60.352565 587.008546c63.99992-223.99972 208.38374-315.263606 289.855637-353.983557-31.67996-25.727968-61.183924-63.487921-56.319929-126.591842a31.74396 31.74396 0 0 1 2.111997-9.151989C334.656222-1.406718 494.976021-0.06272 512.895999 0.00128a31.99996 31.99996 0 0 1 31.167961 32.767959A31.167961 31.167961 0 0 1 511.360001 64.0012c-31.80796-0.831999-130.943836 7.551991-153.919808 52.479934-1.407998 42.687947 23.423971 62.079922 63.615921 88.12789l12.415984 8.19199a31.99996 31.99996 0 1 1-4.159995 55.551931 425.215468 425.215468 0 0 1-15.99998 6.847991c-61.183924 25.343968-223.74372 92.607884-290.943636 327.295591-19.007976 88.639889-1.087999 173.375783 50.943936 236.479704 67.391916 81.983898 183.551771 124.351845 338.239578 120.895849 17.343978-1.471998 32.25596 13.759983 32.575959 31.359961a32.12796 32.12796 0 0 1-31.423961 32.639959C507.328006 1024 501.888013 1024 496.640019 1024z" fill="#d81e06" p-id="5384"></path><path d="M527.61598 1024c-5.311993 0-10.687987 0-16.063979-0.128-17.663978-0.384-31.74396-14.975981-31.423961-32.639959s12.991984-33.343958 32.575959-31.359961c154.815806 4.479994 270.847661-38.975951 338.239577-120.895849 52.031935-63.231921 69.951913-147.903815 50.431937-238.527702-66.751917-232.767709-229.311713-300.031625-290.495637-325.311593a335.80758 335.80758 0 0 1-15.87198-6.783991 31.99996 31.99996 0 0 1-4.223994-55.487931l12.351984-8.06399c40.25595-26.111967 65.087919-45.439943 63.67992-88.19189-22.911971-44.991944-120.25585-52.735934-153.855807-52.159935-15.87198 1.599998-32.31996-13.503983-32.831959-31.167961a31.99996 31.99996 0 0 1 31.103961-32.831959c18.431977-0.192 178.367777-1.919998 217.023729 96.767879a30.079962 30.079962 0 0 1 2.047997 9.215989c4.863994 63.103921-24.639969 100.799874-56.25593 126.591842 81.471898 38.719952 225.663718 129.663838 289.343639 351.87156 24.31997 112.25586 1.727998 216.12773-62.975922 294.847631C845.823583 945.984098 737.087719 1024 527.61598 1024z" fill="#d81e06" p-id="5385"></path></svg>