<svg t="1587183935619" class="icon" viewBox="0 0 1024 1024" version="1.1" xmlns="http://www.w3.org/2000/svg" p-id="6242" width="200" height="200"><path d="M652.041 367.371c-17.668-14.64-45.603-21.962-83.806-21.962h-127.5v183.008h127.5c38.68 0 66.854-7.32 84.522-21.961 17.67-15.13 26.503-38.553 26.503-70.274 0-32.697-9.072-55.634-27.219-68.81zM512 0C229.229-0.001 0 229.229 0 511.999s229.23 512 511.999 512c282.77 0 512-229.23 512-512s-229.23-512-512-512z m61.25 596.497H440.736v203.502h-78.077V277.333h212.023c121.77 0 182.655 52.95 182.655 158.85 0 106.875-61.363 160.313-184.088 160.313z" p-id="6243" fill="#d81e06"></path></svg>